<?xml version="1.0" encoding="utf-8"?>
<!-- Generator: Adobe Illustrator 21.1.0, SVG Export Plug-In . SVG Version: 6.00 Build 0)  -->
<svg version="1.1" id="Laag_1" xmlns="http://www.w3.org/2000/svg" xmlns:xlink="http://www.w3.org/1999/xlink" x="0px" y="0px"
	 viewBox="0 0 69 70" style="enable-background:new 0 0 69 70;" xml:space="preserve">
<style type="text/css">
	.st0{fill:#FFFFFF;}
</style>
<path class="st0" d="M65.7,8.1c0-0.7-0.2-0.8-0.9-0.8c-1.4-0.1-2.7-0.4-3.9-1c-2.7-1.3-4.4-3.3-5.6-5.8c-0.2-0.5-0.4-0.6-0.9-0.3
	c-1.3,0.7-2.6,1.2-4,1.5C37.9,4.8,25.7,4.5,13.6,0c-0.1,0.2-0.1,0.4-0.2,0.6c-1.2,4.2-4.5,6.7-9.3,7.1c-0.9,0.1-0.9,0.5-0.9,1
	c0,13.5,0.1,19.6,0.1,33c0,1.6,0.3,3.2,0.8,4.7c3.5,9.1,9.9,16.1,19.3,20.8c7.5,3.8,15.2,3.6,22.6-0.3c7.1-3.7,12.3-8.9,16.2-15.3
	c2.2-3.7,3.3-7.7,3.2-12c-0.1-6.2,0-5.1,0.1-11.3C65.7,21.6,65.7,14.9,65.7,8.1z M62.1,29.5c0,5.5-0.2,3.6-0.1,9.2
	c0.1,3.8-0.9,7.3-2.9,10.6c-3.4,5.7-8.1,10.3-14.3,13.6c-6.6,3.5-13.4,3.7-20.1,0.3c-8.3-4.2-14-10.3-17.1-18.4
	c-0.5-1.3-0.7-2.7-0.8-4.2c0-11.9-0.1-16.5-0.1-28.4c0-0.5-0.1-0.9,0.8-0.9c4.2-0.3,7.2-2.6,8.2-6.3c0.1-0.2,0.1-0.4,0.2-0.6
	c10.7,4,21.6,4.3,32.6,1.5c1.3-0.3,2.5-0.8,3.6-1.4c0.5-0.3,0.6-0.1,0.8,0.3c1,2.2,2.6,4,4.9,5.1c1.1,0.5,2.2,0.9,3.4,0.9
	c0.6,0,0.8,0.2,0.8,0.7C62.1,17.6,62.1,23.5,62.1,29.5z"/>
<g>
	<path class="st0" d="M11.6,19.9h5.1c1.4,0,2.3,0.2,2.9,0.5c0.6,0.4,1,1,1.4,1.9c0.4,0.9,0.6,1.9,0.6,3c0,1-0.2,2-0.5,2.8
		c-0.3,0.8-0.8,1.5-1.3,1.9c0.7,0.4,1.3,1,1.8,1.9c0.4,0.9,0.6,2,0.6,3.3c0,1.6-0.3,2.9-0.8,4c-0.5,1.1-1.2,1.8-1.9,2
		c-0.5,0.2-1.7,0.3-3.6,0.3h-4.3V19.9z M14.1,23.5v5h1.7c1,0,1.6,0,1.9-0.1c0.4-0.1,0.8-0.4,1-0.8c0.2-0.4,0.4-1,0.4-1.7
		c0-0.6-0.1-1.2-0.3-1.6c-0.2-0.4-0.4-0.6-0.7-0.7c-0.3-0.1-1.1-0.1-2.4-0.1H14.1z M14.1,32.1v5.8h2.4c1,0,1.7-0.1,2-0.2
		c0.3-0.2,0.5-0.5,0.7-0.9c0.2-0.4,0.3-1,0.3-1.7c0-0.7-0.1-1.3-0.3-1.7c-0.2-0.5-0.5-0.8-0.9-0.9c-0.4-0.2-1.1-0.3-2.2-0.3H14.1z"
		/>
	<path class="st0" d="M24.3,41.6v-4.2h2.4v4.2H24.3z"/>
	<path class="st0" d="M40.6,41.6h-2.8l-1.1-4.9h-5.1l-1,4.9h-2.7l4.9-21.7h2.7L40.6,41.6z M35.9,33l-1.7-8l-1.7,8H35.9z"/>
	<path class="st0" d="M41.9,41.6v-4.2h2.4v4.2H41.9z"/>
	<path class="st0" d="M46.8,19.9h4.6c1.2,0,2.1,0.2,2.7,0.6c0.6,0.4,1.1,1,1.7,1.9c0.5,0.9,0.9,2,1.2,3.4c0.3,1.4,0.4,3.1,0.4,5.2
		c0,1.9-0.2,3.5-0.5,4.9c-0.3,1.4-0.7,2.5-1.1,3.3c-0.5,0.8-1,1.4-1.7,1.8c-0.7,0.4-1.5,0.6-2.5,0.6h-4.8V19.9z M49.3,23.6v14.3h1.9
		c0.8,0,1.4-0.1,1.8-0.3c0.4-0.2,0.7-0.5,0.9-1c0.2-0.4,0.4-1.1,0.6-2.1c0.2-0.9,0.2-2.2,0.2-3.7c0-1.6-0.1-2.9-0.2-3.8
		c-0.2-0.9-0.4-1.7-0.7-2.2s-0.7-0.9-1.2-1c-0.4-0.1-1-0.2-2.1-0.2H49.3z"/>
</g>
</svg>
