<?xml version="1.0" encoding="utf-8"?>
<!-- Generator: Adobe Illustrator 21.1.0, SVG Export Plug-In . SVG Version: 6.00 Build 0)  -->
<svg version="1.1" id="Laag_1" xmlns="http://www.w3.org/2000/svg" xmlns:xlink="http://www.w3.org/1999/xlink" x="0px" y="0px"
	 viewBox="0 0 130 133" style="enable-background:new 0 0 130 133;" xml:space="preserve">
<style type="text/css">
	.st0{fill:#FFFFFF;}
</style>
<path class="st0" d="M123.8,15.5c0-1.2-0.4-1.5-1.7-1.6c-2.6-0.1-5.1-0.8-7.4-1.9c-5-2.5-8.4-6.3-10.6-10.9
	c-0.4-0.9-0.7-1.2-1.8-0.6c-2.4,1.3-5,2.2-7.7,2.9C71.1,9.3,48,8.8,25,0.2c-0.1,0.3-0.2,0.8-0.4,1.2c-2.2,7.9-8.5,12.8-17.5,13.4
	c-1.7,0.1-1.6,0.9-1.6,1.9c0.1,25.5,0.1,37.1,0.2,62.6c0,3,0.5,6,1.6,8.9c6.6,17.3,18.8,30.4,36.5,39.4c14.3,7.3,28.8,6.8,42.9-0.6
	c13.4-7,23.4-17,30.7-29.1c4.3-7.1,6.3-14.5,6.2-22.7c-0.3-11.8,0.1-9.6,0.1-21.4C123.7,41.1,123.7,28.3,123.8,15.5z M116.9,56.1
	c0,10.4-0.3,6.9-0.1,17.4c0.2,7.2-1.7,13.8-5.4,20.1c-6.5,10.8-15.3,19.6-27.2,25.8c-12.5,6.6-25.3,7-38,0.5
	c-15.7-8-26.6-19.6-32.4-34.9c-1-2.5-1.4-5.2-1.4-7.9c-0.1-22.6-0.1-31.3-0.2-53.9c0-0.9-0.1-1.6,1.4-1.7c8-0.5,13.6-4.8,15.6-11.9
	c0.1-0.4,0.2-0.8,0.3-1.1c20.3,7.6,40.9,8.1,61.7,2.8c2.4-0.6,4.7-1.4,6.8-2.6c0.9-0.5,1.2-0.3,1.6,0.5c2,4.1,4.9,7.5,9.4,9.7
	c2,1,4.2,1.6,6.5,1.7c1.2,0,1.6,0.3,1.5,1.4C117,33.4,117,44.8,116.9,56.1z"/>
<g>
	<path class="st0" d="M21.1,37.9h9.6c2.6,0,4.5,0.3,5.5,1c1.1,0.7,2,1.9,2.7,3.6c0.7,1.7,1.1,3.6,1.1,5.8c0,2-0.3,3.8-0.9,5.4
		c-0.6,1.6-1.4,2.8-2.4,3.5c1.4,0.7,2.5,1.9,3.3,3.6c0.8,1.7,1.2,3.8,1.2,6.3c0,3-0.5,5.5-1.5,7.6c-1,2.1-2.2,3.3-3.6,3.8
		c-1,0.3-3.2,0.5-6.7,0.5h-8.1V37.9z M26,44.7v9.5h3.2c1.9,0,3.1,0,3.5-0.1c0.8-0.2,1.5-0.7,1.9-1.5c0.5-0.8,0.7-1.9,0.7-3.2
		c0-1.2-0.2-2.2-0.6-3c-0.4-0.8-0.8-1.2-1.4-1.4c-0.5-0.2-2.1-0.3-4.6-0.3H26z M26,61.1v11h4.5c2,0,3.2-0.1,3.8-0.4
		c0.6-0.3,1-0.9,1.4-1.7c0.4-0.8,0.6-1.9,0.6-3.2c0-1.3-0.2-2.4-0.6-3.3c-0.4-0.9-0.9-1.5-1.6-1.8c-0.7-0.3-2-0.5-4.1-0.5H26z"/>
	<path class="st0" d="M45.2,79v-7.9h4.6V79H45.2z"/>
	<path class="st0" d="M76.1,79h-5.2l-2.1-9.3h-9.6l-2,9.3h-5.1l9.3-41.1h5.1L76.1,79z M67.3,62.7L64,47.5l-3.2,15.2H67.3z"/>
	<path class="st0" d="M78.7,79v-7.9h4.6V79H78.7z"/>
	<path class="st0" d="M87.9,37.9h8.8c2.2,0,3.9,0.4,5,1.1c1.1,0.7,2.2,1.9,3.1,3.5c1,1.7,1.7,3.8,2.2,6.5c0.5,2.7,0.8,6,0.8,9.9
		c0,3.6-0.3,6.6-0.9,9.3c-0.6,2.6-1.3,4.7-2.2,6.2c-0.9,1.5-1.9,2.7-3.2,3.5C100.6,78.6,99,79,97,79h-9.1V37.9z M92.8,44.9V72h3.6
		c1.6,0,2.7-0.2,3.4-0.6s1.3-1,1.7-1.9c0.4-0.8,0.8-2.1,1.1-3.9c0.3-1.8,0.4-4.2,0.4-7.1c0-3-0.1-5.4-0.4-7.2
		c-0.3-1.8-0.8-3.1-1.4-4.1c-0.6-1-1.4-1.7-2.3-2c-0.7-0.2-2-0.4-3.9-0.4H92.8z"/>
</g>
</svg>
