<?xml version="1.0" encoding="utf-8"?>
<!-- Generator: Adobe Illustrator 21.1.0, SVG Export Plug-In . SVG Version: 6.00 Build 0)  -->
<svg version="1.1" id="Laag_1" xmlns="http://www.w3.org/2000/svg" xmlns:xlink="http://www.w3.org/1999/xlink" x="0px" y="0px"
	 viewBox="0 0 55 57" style="enable-background:new 0 0 55 57;" xml:space="preserve">
<style type="text/css">
	.st0{fill:#030405;}
	.st1{fill:#020203;}
</style>
<path class="st0" d="M52.9,6.6c0-0.5-0.2-0.7-0.8-0.7C51,5.9,50,5.6,49,5.1c-2.2-1.1-3.6-2.7-4.5-4.7c-0.2-0.4-0.3-0.5-0.8-0.3
	c-1,0.5-2.1,1-3.3,1.2C30.3,3.9,20.3,3.7,10.5,0c0,0.1-0.1,0.3-0.2,0.5C9.4,3.9,6.7,6,2.8,6.3C2,6.3,2.1,6.7,2.1,7.1
	c0,11,0.1,15.9,0.1,26.9c0,1.3,0.2,2.6,0.7,3.8c2.8,7.4,8.1,13.1,15.7,16.9c6.1,3.1,12.3,2.9,18.4-0.3c5.8-3,10-7.3,13.2-12.5
	c1.8-3,2.7-6.2,2.6-9.7c-0.1-5.1,0-4.1,0-9.2C52.9,17.6,52.9,12.1,52.9,6.6z M50,24c0,4.5-0.1,3,0,7.5c0.1,3.1-0.7,5.9-2.3,8.6
	c-2.8,4.6-6.6,8.4-11.7,11.1c-5.4,2.8-10.9,3-16.3,0.2C12.8,48,8.2,43,5.7,36.4c-0.4-1.1-0.6-2.2-0.6-3.4C5,23.3,5,19.6,5,9.9
	c0-0.4,0-0.7,0.6-0.7c3.5-0.2,5.8-2.1,6.7-5.1c0-0.2,0.1-0.3,0.1-0.5C21.2,6.9,30,7.1,38.9,4.8c1-0.3,2-0.6,2.9-1.1
	c0.4-0.2,0.5-0.1,0.7,0.2c0.8,1.8,2.1,3.2,4,4.2c0.9,0.4,1.8,0.7,2.8,0.7C49.9,8.8,50,9,50,9.4C50,14.3,50,19.2,50,24z"/>
<g>
	<path class="st1" d="M8.8,16.2h4.1c1.1,0,1.9,0.1,2.4,0.4c0.5,0.3,0.8,0.8,1.2,1.5c0.3,0.7,0.5,1.6,0.5,2.5c0,0.9-0.1,1.6-0.4,2.3
		c-0.3,0.7-0.6,1.2-1,1.5c0.6,0.3,1.1,0.8,1.4,1.6c0.3,0.7,0.5,1.6,0.5,2.7c0,1.3-0.2,2.4-0.7,3.3c-0.4,0.9-1,1.4-1.6,1.6
		c-0.4,0.1-1.4,0.2-2.9,0.2H8.8V16.2z M10.9,19.2v4.1h1.4c0.8,0,1.3,0,1.5-0.1c0.4-0.1,0.6-0.3,0.8-0.6c0.2-0.3,0.3-0.8,0.3-1.4
		c0-0.5-0.1-0.9-0.2-1.3c-0.2-0.3-0.4-0.5-0.6-0.6c-0.2-0.1-0.9-0.1-2-0.1H10.9z M10.9,26.2v4.7h1.9c0.8,0,1.4-0.1,1.6-0.2
		c0.2-0.1,0.4-0.4,0.6-0.7c0.2-0.4,0.2-0.8,0.2-1.4c0-0.6-0.1-1.1-0.3-1.4c-0.2-0.4-0.4-0.6-0.7-0.8c-0.3-0.1-0.9-0.2-1.8-0.2H10.9z
		"/>
	<path class="st1" d="M19.2,33.9v-3.4h2v3.4H19.2z"/>
	<path class="st1" d="M32.4,33.9h-2.2l-0.9-4h-4.1l-0.8,4h-2.2l4-17.6h2.2L32.4,33.9z M28.6,26.9l-1.4-6.5l-1.4,6.5H28.6z"/>
	<path class="st1" d="M33.5,33.9v-3.4h2v3.4H33.5z"/>
	<path class="st1" d="M37.5,16.2h3.8c1,0,1.7,0.2,2.2,0.5c0.5,0.3,0.9,0.8,1.3,1.5c0.4,0.7,0.7,1.6,1,2.8c0.2,1.1,0.4,2.6,0.4,4.2
		c0,1.5-0.1,2.9-0.4,4c-0.2,1.1-0.6,2-0.9,2.7c-0.4,0.7-0.8,1.2-1.4,1.5c-0.5,0.3-1.2,0.5-2.1,0.5h-3.9V16.2z M39.6,19.2v11.7h1.6
		c0.7,0,1.1-0.1,1.4-0.3s0.5-0.4,0.7-0.8c0.2-0.4,0.3-0.9,0.5-1.7c0.1-0.8,0.2-1.8,0.2-3c0-1.3-0.1-2.3-0.2-3.1
		c-0.1-0.8-0.3-1.3-0.6-1.8c-0.3-0.4-0.6-0.7-1-0.9c-0.3-0.1-0.9-0.2-1.7-0.2H39.6z"/>
</g>
</svg>
